<svg width="87" height="28" viewBox="0 0 87 28" fill="none" xmlns="http://www.w3.org/2000/svg">
<path fill-rule="evenodd" clip-rule="evenodd" d="M3.06264 22.7644C2.93381 22.6281 2.81175 22.4788 2.71004 22.3162C0.942525 19.9809 0 17.1733 0 14.2712C0 6.75337 6.26542 0.663574 14 0.663574C21.7346 0.663574 28 6.75337 28 14.2712C28 19.7766 24.5915 24.7328 19.3771 26.8374C18.9861 27.0066 18.5838 27.1494 18.1792 27.2614C16.8276 27.6722 15.4172 27.8787 14.0023 27.8787C9.73265 27.8765 5.72748 25.996 3.06264 22.7644ZM22.0013 9.32594C22.0646 9.76092 22.103 10.2047 22.1166 10.6397C22.6929 10.0729 23.4885 9.74994 24.3271 9.74994C25.1792 9.74994 25.9793 10.0861 26.5625 10.6726C25.6968 7.80788 23.8072 5.32978 21.2577 3.67991C21.9877 4.71905 22.372 5.94052 22.372 7.21033C22.3742 7.93091 22.2522 8.6471 22.0013 9.32594ZM23.2896 15.6288C23.9361 16.7998 24.2774 18.1069 24.2774 19.447C24.2774 20.7674 23.9496 22.0504 23.3281 23.2015C25.7375 20.8223 27.0959 17.6346 27.0959 14.2712C27.0959 14.2338 27.0959 14.1899 27.0959 14.1525C26.5715 15.1499 25.5069 15.7958 24.3271 15.7958C23.9677 15.7958 23.6219 15.7409 23.2896 15.6288ZM5.17146 17.5401C3.35873 15.7475 2.33936 13.3419 2.33936 10.8154C2.33936 9.63131 2.56313 8.46695 2.99257 7.3707C1.63416 9.4204 0.904101 11.804 0.904101 14.2712C0.904101 16.2571 1.37875 18.2014 2.29416 19.9765C2.59477 18.643 3.76106 17.6522 5.17146 17.5401ZM8.49629 19.7129C8.49629 19.7195 8.49629 19.726 8.49629 19.737C8.5867 20.0292 8.63642 20.3412 8.63642 20.6531C8.63642 20.7146 8.62964 20.785 8.62964 20.8465C9.30772 24.2341 12.3771 26.6814 15.928 26.6814C16.6016 26.6814 17.2661 26.5935 17.9148 26.42C18.2854 26.3079 18.6516 26.1761 19.011 26.0333C21.6645 24.8558 23.3687 22.2854 23.3687 19.4448C23.3687 17.6016 22.6568 15.8463 21.3639 14.5062C19.8337 18.0806 16.2376 20.4225 12.2347 20.4225C10.9441 20.4225 9.68066 20.1874 8.49629 19.7129ZM8.12335 22.336C7.5402 23.2257 6.52761 23.7749 5.42687 23.7749C5.38166 23.7749 5.32967 23.7683 5.28673 23.7683C7.36164 25.5676 9.95641 26.677 12.7117 26.9385C10.6164 26.0839 8.94382 24.4142 8.12335 22.336ZM7.59219 19.8007C7.45657 19.4778 7.23959 19.1834 6.97062 18.9527C6.79658 18.8473 6.6248 18.7352 6.45754 18.6166C6.13658 18.4606 5.78398 18.3859 5.42687 18.3859C4.13852 18.3859 3.09428 19.4009 3.09428 20.6531C3.09428 20.9959 3.17113 21.332 3.32483 21.6373C3.50339 21.8856 3.69551 22.1295 3.89441 22.3667C4.32386 22.727 4.8618 22.9203 5.4246 22.9203C6.57733 22.9203 7.55828 22.0987 7.73006 20.9893C7.65547 20.5982 7.60575 20.1984 7.59219 19.8007ZM10.6028 3.58984C11.0255 3.00986 11.5521 2.50018 12.1466 2.08277C10.6277 2.09595 9.1608 2.47601 7.8476 3.1922C8.05328 3.16804 8.26348 3.15486 8.46916 3.15486C9.20601 3.15486 9.93155 3.30424 10.6028 3.58984ZM12.5331 11.5184C12.6936 11.6305 12.8541 11.7425 13.0258 11.8414C13.9548 11.5053 14.9357 11.3361 15.928 11.3361C16.9089 11.3361 17.8831 11.4987 18.7985 11.8282C19.8179 11.2241 20.618 10.3145 21.0655 9.23806C20.392 5.65053 17.465 2.82971 13.7627 2.20799C12.8201 2.59465 11.9997 3.22296 11.4052 4.02043C12.8586 4.97389 13.731 6.55565 13.731 8.26703C13.731 9.45775 13.3129 10.6023 12.5331 11.5184ZM11.898 12.1468C10.9441 12.9442 9.73265 13.3792 8.46916 13.3792C6.00775 13.3792 3.90798 11.7293 3.35647 9.45555C3.27963 9.90372 3.24798 10.3585 3.24798 10.8132C3.24798 13.9153 4.93413 16.7602 7.66225 18.3288C8.02842 15.7387 9.67388 13.4781 12.0517 12.2632C11.9997 12.228 11.95 12.1907 11.898 12.1468ZM10.1304 4.35656C9.60607 4.14566 9.04101 4.03361 8.47142 4.03361C6.06878 4.03361 4.12044 5.93393 4.12044 8.26923C4.12044 10.6111 6.06878 12.5048 8.47142 12.5048C9.47724 12.5048 10.4446 12.1687 11.2199 11.5514C10.0739 10.3804 9.43203 8.83603 9.43203 7.21033C9.43203 6.21293 9.6671 5.23971 10.1304 4.35656ZM10.9306 4.77397C10.5396 5.5275 10.3339 6.36232 10.3339 7.20813C10.3339 8.59657 10.8786 9.92349 11.8595 10.9253C12.4879 10.1717 12.8269 9.23806 12.8269 8.26703C12.8269 6.86541 12.115 5.55826 10.9306 4.77397ZM19.7795 12.2456C20.184 12.4521 20.5728 12.6872 20.939 12.9552C21.1175 12.2588 21.2147 11.536 21.2147 10.8132V10.8066C20.8169 11.3559 20.3287 11.848 19.7795 12.2456ZM18.8686 12.8014C17.9532 13.2628 16.9338 13.4978 15.9031 13.4978C14.877 13.4978 13.8712 13.2672 12.9625 12.8124C10.4808 13.8603 8.77204 16.1451 8.52115 18.766C9.68744 19.2823 10.9487 19.5437 12.2302 19.5437C15.9845 19.5437 19.341 17.2699 20.6497 13.8581C20.1117 13.4297 19.5082 13.0694 18.8686 12.8014ZM15.6658 1.80376C18.3306 2.76381 20.4508 4.80472 21.4701 7.38388C21.4701 7.32676 21.4701 7.26525 21.4701 7.21033C21.4701 4.22035 18.9771 1.79937 15.9031 1.79937C15.8263 1.79717 15.7427 1.79717 15.6658 1.80376ZM17.5305 12.384C17.0061 12.272 16.4659 12.2149 15.928 12.2149C15.3765 12.2149 14.8318 12.272 14.2938 12.3884C14.8182 12.5444 15.3584 12.6191 15.9009 12.6191C16.4524 12.6213 17.0039 12.54 17.5305 12.384Z" fill="black"/>
<path d="M45.0597 16.8348L45.3309 16.8926L44.3777 19.8025H35.825V19.5113H36.2434C36.7058 19.5113 37.0339 19.3606 37.2405 19.0694C37.3568 18.9062 37.4084 18.5145 37.4084 17.8944V10.9722C37.4084 10.2969 37.3361 9.87505 37.1811 9.71185C36.9693 9.48337 36.6619 9.36286 36.2434 9.36286H35.825V9.07915H40.8259V9.36286C40.5263 9.36286 40.2757 9.37792 40.0871 9.40554C39.8831 9.43316 39.7203 9.47082 39.5886 9.52606C39.4646 9.57627 39.3613 9.63904 39.289 9.71185C39.2166 9.78215 39.1572 9.8625 39.1055 9.94786C39.0255 10.1035 38.9738 10.5103 38.9738 11.158V17.8969C38.9738 18.0827 38.9816 18.2383 38.9971 18.3739C39.0126 18.5095 39.0332 18.6149 39.0694 18.7003C39.0978 18.7857 39.1417 18.856 39.1934 18.9137C39.2528 18.9715 39.3251 19.0141 39.4129 19.0418C39.5369 19.0995 39.9632 19.1196 40.6787 19.1196H41.4924C42.3345 19.1196 42.9286 19.0618 43.2799 18.9413C43.4478 18.8836 43.6157 18.8058 43.763 18.7053C43.9179 18.6049 44.0626 18.4693 44.2098 18.2986C44.3493 18.1354 44.4966 17.9345 44.6335 17.6935C44.7756 17.4625 44.915 17.1763 45.0597 16.8348ZM50.8304 19.5113V19.8025H46.093V19.5113H46.4882C46.9506 19.5113 47.2864 19.3832 47.4853 19.1196C47.617 18.9639 47.6842 18.5497 47.6842 17.9019V10.9722C47.6842 10.7237 47.6764 10.5178 47.6687 10.3521C47.6532 10.1964 47.6325 10.0684 47.6015 9.96041C47.5731 9.85999 47.5292 9.78215 47.4698 9.72441C47.4181 9.65913 47.338 9.61142 47.2347 9.55367C46.9996 9.42563 46.7517 9.36035 46.4882 9.36035H46.093V9.07663H50.8304V9.36035H50.4352C49.9806 9.36035 49.6525 9.49593 49.4536 9.75202C49.3141 9.91522 49.2496 10.322 49.2496 10.9697V17.9019C49.2496 18.158 49.2573 18.3639 49.2651 18.522C49.2806 18.6777 49.2935 18.8057 49.3322 18.9062C49.3606 19.0066 49.4045 19.092 49.464 19.1547C49.5234 19.2125 49.6035 19.2677 49.699 19.3255C49.9341 19.446 50.1743 19.5113 50.4378 19.5113H50.8304ZM57.3245 8.82807C58.753 8.82807 59.9903 9.36286 61.0442 10.4224C62.0981 11.4769 62.6173 12.7925 62.6173 14.3793C62.6173 16.0013 62.0904 17.3545 61.0365 18.4367C59.9748 19.5113 58.6935 20.0461 57.1927 20.0461C55.6687 20.0461 54.3874 19.5263 53.3619 18.4743C52.3287 17.4274 51.8172 16.069 51.8172 14.4044C51.8172 12.6971 52.4113 11.3087 53.6047 10.2341C54.6458 9.29758 55.8831 8.82807 57.3245 8.82807ZM57.1721 9.41307C56.6167 9.41307 56.1181 9.53359 55.6868 9.76207C55.2476 9.99808 54.8886 10.3245 54.5889 10.7588C54.297 11.1857 54.0697 11.7054 53.9147 12.318C53.7597 12.9306 53.6874 13.6135 53.6874 14.3668C53.6874 15.12 53.7597 15.8104 53.9147 16.4381C54.062 17.0633 54.2893 17.6056 54.5812 18.0525C54.8731 18.507 55.2399 18.8484 55.6713 19.107C56.1104 19.3556 56.6089 19.4837 57.1798 19.4837C57.6913 19.4837 58.1614 19.3832 58.6005 19.1999C59.0319 19.0066 59.4142 18.7154 59.7346 18.3187C60.0497 17.9195 60.2977 17.4148 60.4811 16.7946C60.6645 16.1745 60.7523 15.4414 60.7523 14.5952C60.7523 13.7767 60.68 13.0436 60.5327 12.4034C60.3778 11.7707 60.1582 11.2283 59.8585 10.7814C59.5589 10.3395 59.1766 10.0056 58.7297 9.7696C58.2906 9.53359 57.7636 9.41307 57.1721 9.41307ZM74.5463 19.8025H71.5964L67.8534 14.7785C67.7061 14.7861 67.5821 14.7936 67.4737 14.7936C67.3574 14.7936 67.2618 14.7936 67.174 14.7936C67.1017 14.7936 67.0268 14.7936 66.9467 14.7936C66.8666 14.7936 66.7788 14.7861 66.691 14.7785V17.9019C66.691 18.5773 66.771 18.9991 66.9183 19.1623C67.1223 19.3983 67.4375 19.5113 67.8482 19.5113H68.2796V19.8025H63.5576V19.5113H63.9761C64.4385 19.5113 64.7665 19.3606 64.9732 19.0694C65.0894 18.9062 65.1488 18.5145 65.1488 17.9019V10.9722C65.1488 10.2969 65.0687 9.87505 64.9138 9.71185C64.7097 9.48337 64.3945 9.36286 63.9761 9.36286H63.5576V9.07915H67.5847C68.7497 9.07915 69.6047 9.15698 70.1756 9.32771C70.4469 9.40554 70.7103 9.52606 70.9506 9.68423C71.1934 9.8399 71.4052 10.0257 71.5886 10.2466C71.772 10.4601 71.9115 10.7011 72.02 10.9722C72.1233 11.2434 72.1801 11.5271 72.1801 11.8334C72.1801 12.1674 72.1207 12.4737 72.0122 12.7649C71.9012 13.0486 71.741 13.3123 71.5059 13.5483C71.2864 13.7843 70.9996 13.9902 70.6561 14.1684C70.3125 14.3391 69.9096 14.4823 69.4472 14.5802L71.7307 17.6609C72.2576 18.3714 72.7045 18.8434 73.0713 19.0694C73.451 19.2979 73.9418 19.446 74.5437 19.5113V19.8025H74.5463ZM66.691 14.2889C66.7943 14.2889 66.8899 14.2889 66.9622 14.2889C67.0345 14.2965 67.1017 14.2965 67.1533 14.2965C67.6803 14.2965 68.1427 14.2312 68.5457 14.1182C68.9486 13.9977 69.2767 13.8345 69.5479 13.6211C69.8114 13.4152 70.0103 13.1666 70.1472 12.8729C70.2789 12.5892 70.3461 12.2753 70.3461 11.9339C70.3461 11.6075 70.2867 11.3011 70.1705 11.0225C70.0594 10.7438 69.8992 10.5103 69.6874 10.3119C69.4833 10.106 69.225 9.94786 68.9409 9.84241C68.649 9.72943 68.3261 9.67921 67.9825 9.67921C67.8224 9.67921 67.639 9.68674 67.4272 9.71436C67.2153 9.73696 66.9648 9.77211 66.6961 9.82735V14.2889H66.691ZM82.0245 16.2096H77.7546L77.008 17.9044C76.8246 18.3162 76.7291 18.63 76.7291 18.8434C76.7291 18.9212 76.7446 18.9991 76.773 19.0719C76.8014 19.1422 76.8685 19.215 76.9564 19.2702C77.052 19.3355 77.1837 19.3832 77.3516 19.4209C77.5195 19.4636 77.7391 19.4912 78.0181 19.5138V19.805H74.5334V19.5138C74.988 19.4359 75.2877 19.3355 75.4272 19.2075C75.5744 19.0794 75.7139 18.8861 75.8663 18.63C76.0135 18.3739 76.1737 18.0525 76.3493 17.6609L80.2241 8.82807H80.5108L84.3545 17.7537C84.5147 18.1228 84.6619 18.4216 84.7936 18.6426C84.9254 18.871 85.0649 19.0418 85.2044 19.1698C85.3439 19.2903 85.4963 19.3757 85.6667 19.4259C85.8269 19.4686 86.0258 19.5037 86.2609 19.5113V19.8025H81.9031V19.5113C82.1227 19.5037 82.2983 19.4761 82.4456 19.441C82.5928 19.4058 82.709 19.3556 82.7891 19.2979C82.8769 19.2401 82.9364 19.1773 82.9725 19.0995C83.0009 19.0292 83.0242 18.9438 83.0242 18.8509C83.0319 18.738 83.0009 18.5873 82.9441 18.4091C82.8924 18.2233 82.8046 18.0023 82.6961 17.7537L82.0245 16.2096ZM81.7972 15.6246L79.9218 11.2911L78.0025 15.6246H81.7972Z" fill="black"/>
</svg>
